HIERARCHY
ROOT hip
{
  OFFSET 0 0 0
  CHANNELS 6 Xposition Yposition Zposition Zrotation Yrotation Xrotation
  JOINT abdomen
  {
    OFFSET 0 20.6881 -0.73152
    CHANNELS 3 Zrotation Xrotation Yrotation
    JOINT chest
    {
      OFFSET 0 11.7043 -0.48768
      CHANNELS 3 Zrotation Xrotation Yrotation
      JOINT neck
      {
        OFFSET 0 22.1894 -2.19456
        CHANNELS 3 Zrotation Xrotation Yrotation
        JOINT head
        {
          OFFSET -0.24384 7.07133 1.2192
          CHANNELS 3 Zrotation Xrotation Yrotation
          JOINT leftEye
          {
            OFFSET 4.14528 8.04674 8.04672
            CHANNELS 3 Zrotation Xrotation Yrotation
            End Site
            {
              OFFSET 1 0 0
            }
          }
          JOINT rightEye
          {
            OFFSET -3.6576 8.04674 8.04672
            CHANNELS 3 Zrotation Xrotation Yrotation
            End Site
            {
              OFFSET 1 0 0
            }
          }
        }
      }
      JOINT rCollar
      {
        OFFSET -2.68224 19.2634 -4.8768
        CHANNELS 3 Zrotation Xrotation Yrotation
        JOINT rShldr
        {
          OFFSET -8.77824 -1.95073 1.46304
          CHANNELS 3 Zrotation Xrotation Yrotation
          JOINT rForeArm
          {
            OFFSET -28.1742 -1.7115 0.48768
            CHANNELS 3 Zrotation Xrotation Yrotation
            JOINT rHand
            {
              OFFSET -22.5879 0.773209 7.07136
              CHANNELS 3 Zrotation Xrotation Yrotation
              JOINT rThumb1
              {
                OFFSET -1.2192 -0.487915 3.41376
                CHANNELS 3 Zrotation Xrotation Yrotation
                JOINT rThumb2
                {
                  OFFSET -3.37035 -0.52449 3.41376
                  CHANNELS 3 Zrotation Xrotation Yrotation
                  End Site
                  {
                    OFFSET -1.78271 -1.18214 1.43049
                  }
                }
              }
              JOINT rIndex1
              {
                OFFSET -7.75947 0.938293 5.60832
                CHANNELS 3 Zrotation Xrotation Yrotation
                JOINT rIndex2
                {
                  OFFSET -2.54057 -0.884171 1.56538
                  CHANNELS 3 Zrotation Xrotation Yrotation
                  End Site
                  {
                    OFFSET -1.62519 -0.234802 1.16502
                  }
                }
              }
              JOINT rMid1
              {
                OFFSET -8.24714 1.18213 3.41376
                CHANNELS 3 Zrotation Xrotation Yrotation
                JOINT rMid2
                {
                  OFFSET -3.10165 -0.590103 1.0647
                  CHANNELS 3 Zrotation Xrotation Yrotation
                  End Site
                  {
                    OFFSET -2.48547 -0.328903 0.83742
                  }
                }
              }
              JOINT rRing1
              {
                OFFSET -8.82822 0.546677 1.51678
                CHANNELS 3 Zrotation Xrotation Yrotation
                JOINT rRing2
                {
                  OFFSET -2.60934 -0.819778 -0.0198488
                  CHANNELS 3 Zrotation Xrotation Yrotation
                  End Site
                  {
                    OFFSET -2.33842 -0.294052 0.168128
                  }
                }
              }
              JOINT rPinky1
              {
                OFFSET -8.27202 -0.0477905 -0.4584
                CHANNELS 3 Zrotation Xrotation Yrotation
                JOINT rPinky2
                {
                  OFFSET -1.82734 -0.647385 -0.700984
                  CHANNELS 3 Zrotation Xrotation Yrotation
                  End Site
                  {
                    OFFSET -1.69225 -0.51767 -0.607171
                  }
                }
              }
            }
          }
        }
      }
      JOINT lCollar
      {
        OFFSET 2.68224 19.2634 -4.8768
        CHANNELS 3 Zrotation Xrotation Yrotation
        JOINT lShldr
        {
          OFFSET 8.77824 -1.95073 1.46304
          CHANNELS 3 Zrotation Xrotation Yrotation
          JOINT lForeArm
          {
            OFFSET 28.1742 -1.7115 0.48768
            CHANNELS 3 Zrotation Xrotation Yrotation
            JOINT lHand
            {
              OFFSET 22.5879 0.773209 7.07136
              CHANNELS 3 Zrotation Xrotation Yrotation
              JOINT lThumb1
              {
                OFFSET 1.2192 -0.487915 3.41376
                CHANNELS 3 Zrotation Xrotation Yrotation
                JOINT lThumb2
                {
                  OFFSET 3.37035 -0.52449 3.41376
                  CHANNELS 3 Zrotation Xrotation Yrotation
                  End Site
                  {
                    OFFSET 1.78271 -1.18214 1.43049
                  }
                }
              }
              JOINT lIndex1
              {
                OFFSET 7.75947 0.938293 5.60832
                CHANNELS 3 Zrotation Xrotation Yrotation
                JOINT lIndex2
                {
                  OFFSET 2.54057 -0.884171 1.56538
                  CHANNELS 3 Zrotation Xrotation Yrotation
                  End Site
                  {
                    OFFSET 1.62519 -0.234802 1.16502
                  }
                }
              }
              JOINT lMid1
              {
                OFFSET 8.24714 1.18213 3.41376
                CHANNELS 3 Zrotation Xrotation Yrotation
                JOINT lMid2
                {
                  OFFSET 3.10165 -0.590103 1.0647
                  CHANNELS 3 Zrotation Xrotation Yrotation
                  End Site
                  {
                    OFFSET 2.48547 -0.328903 0.83742
                  }
                }
              }
              JOINT lRing1
              {
                OFFSET 8.82822 0.546677 1.51678
                CHANNELS 3 Zrotation Xrotation Yrotation
                JOINT lRing2
                {
                  OFFSET 2.60934 -0.819778 -0.0198488
                  CHANNELS 3 Zrotation Xrotation Yrotation
                  End Site
                  {
                    OFFSET 2.33842 -0.294052 0.168128
                  }
                }
              }
              JOINT lPinky1
              {
                OFFSET 8.27202 -0.0477905 -0.4584
                CHANNELS 3 Zrotation Xrotation Yrotation
                JOINT lPinky2
                {
                  OFFSET 1.82734 -0.647385 -0.700984
                  CHANNELS 3 Zrotation Xrotation Yrotation
                  End Site
                  {
                    OFFSET 1.69225 -0.51767 -0.607171
                  }
                }
              }
            }
          }
        }
      }
    }
  }
  JOINT rButtock
  {
    OFFSET -8.77824 4.35084 1.2192
    CHANNELS 3 Zrotation Xrotation Yrotation
    JOINT rThigh
    {
      OFFSET 0 -1.70687 -2.19456
      CHANNELS 3 Zrotation Xrotation Yrotation
      JOINT rShin
      {
        OFFSET 0 -36.8199 0.73152
        CHANNELS 3 Zrotation Xrotation Yrotation
        JOINT rFoot
        {
          OFFSET 0.73152 -45.1104 -5.12064
          CHANNELS 3 Zrotation Xrotation Yrotation
          End Site
          {
            OFFSET -1.1221 -3.69964 12.103
          }
        }
      }
    }
  }
  JOINT lButtock
  {
    OFFSET 8.77824 4.35084 1.2192
    CHANNELS 3 Zrotation Xrotation Yrotation
    JOINT lThigh
    {
      OFFSET 0 -1.70687 -2.19456
      CHANNELS 3 Zrotation Xrotation Yrotation
      JOINT lShin
      {
        OFFSET 0 -36.8199 0.73152
        CHANNELS 3 Zrotation Xrotation Yrotation
        JOINT lFoot
        {
          OFFSET -0.73152 -45.1104 -5.12064
          CHANNELS 3 Zrotation Xrotation Yrotation
          End Site
          {
            OFFSET 1.1221 -3.69964 12.103
          }
        }
      }
    }
  }
}
MOTION
Frames:	7
Frame Time:	0.00833333
64.9985 84.8839 -112.96 0.0 0.0 0.0 -0.194077 -0.000752048 -0.00553942 -0.0535363 -0.00112971 -0.00927448 -2.88742e-15 -1.59028e-15 -1.86361e-17 -8.62539e-15 3.18055e-15 -6.21202e-17 -0.0 0.0 0.0 -0.0 0.0 0.0 -1.49225e-15 1.94126e-18 9.93923e-17 -2.70752e-14 2.04997e-16 7.95139e-16 -5.1848e-13 1.5545e-13 -9.54166e-15 -5.93244e-12 -1.55251e-13 -4.77083e-14 -1.39952e-11 -3.91277e-15 -1.11319e-13 -2.4173e-11 -9.54166e-15 -2.07531e-13 -1.39873e-11 -2.38542e-15 -1.20861e-13 7.73091 5.47488 0.417314 -1.39946e-11 -3.77691e-15 -1.145e-13 2.90554 0.965183 0.102902 -1.3989e-11 -3.57812e-15 -1.1609e-13 10.2786 0.731801 0.0259123 -1.4002e-11 -2.38542e-15 -1.145e-13 2.22167 -0.733487 -0.20892 -1.39022e-15 1.94126e-18 -9.93923e-17 -3.29673e-14 6.89534e-16 -1.39149e-15 -5.18878e-13 -1.51871e-13 2.22639e-14 -5.93048e-12 1.65936e-13 -7.95139e-14 -1.39909e-11 1.99204e-14 -1.24042e-13 -2.41547e-11 2.8625e-14 -2.03556e-13 -1.39968e-11 2.22639e-14 -1.145e-13 -7.73091 5.47488 -0.417314 -1.39913e-11 2.03754e-14 -1.17681e-13 -2.90554 0.965183 -0.102902 -1.4009e-11 2.08724e-14 -1.17681e-13 -10.2786 0.731801 -0.0259123 -1.39925e-11 2.06736e-14 -1.27222e-13 -2.22167 -0.733487 0.20892 -2.03217e-16 0.0 -3.88251e-19 0.355852 -2.82714 -0.0340694 -0.00665505 -0.431854 -0.0584472 -0.502543 3.25829 0.123799 2.03217e-16 0.0 3.88251e-19 -0.651363 -3.58303 0.0525572 0.00446003 0.937454 0.0381205 0.504971 2.64491 -0.111592
64.6915 83.6382 -114.058 -0.7112 -3.4801 2.3572 -0.252802 3.28011 2.02678 -0.555216 -0.903397 0.527472 -3.83071 -0.606415 -2.2527 4.90673 1.11036 -3.39782 -0.0 0.0 0.0 -0.0 0.0 0.0 1.1192e-14 -1.33919e-14 -8.06437e-15 22.8962 5.50454 0.644439 -4.50151 -2.10467 6.96547 0.00750188 1.92389 0.269837 -1.77846e-10 1.19717e-10 -7.73471e-12 -3.07668e-10 2.06718e-10 -1.19401e-11 -1.77838e-10 1.19717e-10 -7.74505e-12 7.73091 5.47488 0.417314 -1.77845e-10 1.19715e-10 -7.73789e-12 2.90554 0.965183 0.102902 -1.77838e-10 1.19714e-10 -7.73952e-12 10.2786 0.731801 0.0259123 -1.77852e-10 1.19715e-10 -7.73717e-12 2.22167 -0.733487 -0.20892 1.12799e-14 -1.33912e-14 -8.26082e-15 -21.7648 4.8429 2.01048 4.08821 -1.83201 -6.41299 -0.00678697 1.82758 -0.256377 -8.50488e-11 -3.12918e-11 -4.11913e-11 -1.47078e-10 -5.41074e-11 -7.0595e-11 -8.50516e-11 -3.12898e-11 -4.11791e-11 -7.73091 5.47488 -0.417314 -8.50473e-11 -3.12898e-11 -4.11858e-11 -2.90554 0.965183 -0.102902 -8.50636e-11 -3.12902e-11 -4.11853e-11 -10.2786 0.731801 -0.0259123 -8.50467e-11 -3.12896e-11 -4.11945e-11 -2.22167 -0.733487 0.20892 -2.03217e-16 0.0 -3.88251e-19 0.656116 -1.17556 -0.89292 -0.0234907 9.34717 0.0544238 -0.517913 5.50401 1.18926 2.03217e-16 0.0 3.88251e-19 -1.29193 -8.96101 0.292975 0.0346646 5.33646 0.0859944 0.480534 2.63137 -2.25751
64.8119 83.7877 -113.302 -0.4759 -3.4354 2.1238 -0.546244 6.73008 4.20768 -1.07168 -1.8569 1.09937 -7.93288 -1.2434 -4.63557 10.2419 2.27558 -6.99601 -0.0 0.0 0.0 -0.0 0.0 0.0 2.5659e-14 -2.80283e-14 -1.72974e-14 46.967 11.3241 1.36153 -8.71005 -4.22726 14.3617 -0.00430298 3.94635 0.554532 -3.57597e-10 2.51975e-10 -2.10791e-11 -6.18701e-10 4.35108e-10 -3.34266e-11 -3.5759e-10 2.51974e-10 -2.10903e-11 7.73091 5.47488 0.417314 -3.57597e-10 2.51973e-10 -2.10823e-11 2.90554 0.965183 0.102902 -3.57588e-10 2.51969e-10 -2.1084e-11 10.2786 0.731801 0.0259123 -3.57603e-10 2.5197e-10 -2.10809e-11 2.22167 -0.733487 -0.20892 2.57347e-14 -2.80268e-14 -1.74899e-14 -45.1477 9.93242 4.19168 7.95852 -3.68612 -13.2001 0.00385776 3.75983 -0.528325 -1.67737e-10 -6.61401e-11 -8.54168e-11 -2.90111e-10 -1.14365e-10 -1.46345e-10 -1.67737e-10 -6.61385e-11 -8.54017e-11 -7.73091 5.47488 -0.417314 -1.67734e-10 -6.61364e-11 -8.54122e-11 -2.90554 0.965183 -0.102902 -1.67749e-10 -6.61378e-11 -8.54111e-11 -10.2786 0.731801 -0.0259123 -1.67732e-10 -6.61363e-11 -8.542e-11 -2.22167 -0.733487 0.20892 -2.03217e-16 0.0 -3.88251e-19 1.06559 0.651578 -1.77871 -0.0839885 19.5394 0.181245 -0.622693 7.75666 2.32088 2.03217e-16 0.0 3.88251e-19 -1.8918 -14.6927 0.557031 0.0582536 10.0103 0.136192 0.452734 2.62282 -4.51332
64.9524 83.8327 -112.575 -0.1759 -3.416 1.9567 -1.0758 9.79202 6.17169 -1.50782 -2.70699 1.60256 -11.6349 -1.808 -6.76112 15.1135 3.28423 -10.2085 -0.0 0.0 0.0 -0.0 0.0 0.0 3.65605e-14 -4.01797e-14 -2.43919e-14 68.3036 16.5051 2.00714 -12.0002 -5.94153 21.0003 -0.032092 5.77115 0.813176 -5.05547e-10 3.59157e-10 -2.29815e-11 -8.74657e-10 6.20172e-10 -3.54053e-11 -5.0554e-10 3.59156e-10 -2.29934e-11 7.73091 5.47488 0.417314 -5.05546e-10 3.59154e-10 -2.29847e-11 2.90554 0.965183 0.102902 -5.05537e-10 3.59149e-10 -2.29864e-11 10.2786 0.731801 0.0259123 -5.05551e-10 3.5915e-10 -2.29825e-11 2.22167 -0.733487 -0.20892 3.66202e-14 -4.01776e-14 -2.45837e-14 -66.3402 14.4559 6.20715 11.0557 -5.22118 -19.3124 0.0288958 5.48229 -0.772273 -2.27165e-10 -9.39152e-11 -1.23326e-10 -3.92925e-10 -1.62379e-10 -2.11378e-10 -2.27161e-10 -9.39139e-11 -1.23308e-10 -7.73091 5.47488 -0.417314 -2.27159e-10 -9.39101e-11 -1.23322e-10 -2.90554 0.965183 -0.102902 -2.27173e-10 -9.39123e-11 -1.2332e-10 -10.2786 0.731801 -0.0259123 -2.27155e-10 -9.39101e-11 -1.23329e-10 -2.22167 -0.733487 0.20892 -2.03217e-16 0.0 -3.88251e-19 1.40516 2.12497 -2.61194 -0.185019 28.9049 0.317555 -0.802676 9.98219 3.35499 2.03217e-16 0.0 3.88251e-19 -2.42985 -19.7155 0.810821 0.0723323 14.1344 0.186274 0.428503 2.59338 -6.54918
65.1125 83.9067 -111.839 0.1515 -3.3137 1.7929 -1.69103 11.9323 7.51664 -1.77958 -3.29951 1.93245 -14.2361 -2.20235 -8.24053 18.5463 3.9466 -12.4421 -0.0 0.0 0.0 -0.0 0.0 0.0 3.85482e-14 -4.61188e-14 -2.61402e-14 83.0967 20.0986 2.39959 -14.0452 -6.99102 25.6453 -0.0622676 7.10224 1.00335 -5.73992e-10 4.03651e-10 3.72125e-12 -9.92915e-10 6.9692e-10 1.13856e-11 -5.73985e-10 4.03649e-10 3.70853e-12 7.73091 5.47488 0.417314 -5.7399e-10 4.03647e-10 3.71807e-12 2.90554 0.965183 0.102902 -5.73982e-10 4.03641e-10 3.71648e-12 10.2786 0.731801 0.0259123 -5.73995e-10 4.03642e-10 3.72125e-12 2.22167 -0.733487 -0.20892 3.85828e-14 -4.61165e-14 -2.6339e-14 -81.3064 17.6346 7.64134 13.0538 -6.21565 -23.6689 0.0550532 6.68064 -0.943224 -2.28437e-10 -1.04007e-10 -1.45444e-10 -3.95192e-10 -1.79787e-10 -2.49619e-10 -2.28433e-10 -1.04006e-10 -1.45425e-10 -7.73091 5.47488 -0.417314 -2.28431e-10 -1.04002e-10 -1.4544e-10 -2.90554 0.965183 -0.102902 -2.28443e-10 -1.04004e-10 -1.45439e-10 -10.2786 0.731801 -0.0259123 -2.28426e-10 -1.04001e-10 -1.45447e-10 -2.22167 -0.733487 0.20892 -2.03217e-16 0.0 -3.88251e-19 1.4581 2.71715 -3.30959 -0.302074 36.2039 0.44662 -1.01515 12.1501 4.12281 2.03217e-16 0.0 3.88251e-19 -2.91841 -22.9671 1.00508 0.0778412 16.8839 0.232203 0.411938 2.5195 -8.03515
65.2579 84.0105 -111.11 0.3934 -3.1657 1.6294 -2.186 12.8051 7.94958 -1.8433 -3.52595 2.02152 -15.2522 -2.36262 -8.81787 19.8396 4.1477 -13.3038 -0.0 0.0 0.0 -0.0 0.0 0.0 2.73634e-14 -4.13108e-14 -1.81476e-14 88.8679 21.4836 2.3766 -14.7806 -7.35278 27.4394 -0.079007 7.74968 1.09633 -5.31961e-10 3.74018e-10 5.17778e-11 -9.19979e-10 6.45704e-10 9.41137e-11 -5.31956e-10 3.74017e-10 5.17642e-11 7.73091 5.47488 0.417314 -5.31958e-10 3.74014e-10 5.17747e-11 2.90554 0.965183 0.102902 -5.31953e-10 3.74011e-10 5.17735e-11 10.2786 0.731801 0.0259123 -5.31964e-10 3.74011e-10 5.17797e-11 2.22167 -0.733487 -0.20892 2.73531e-14 -4.13089e-14 -1.83655e-14 -87.2073 18.9653 8.14669 13.8633 -6.63061 -25.5264 0.0678208 7.17658 -1.01432 -1.53262e-10 -8.05382e-11 -1.33952e-10 -2.65188e-10 -1.39065e-10 -2.30483e-10 -1.53258e-10 -8.05366e-11 -1.33932e-10 -7.73091 5.47488 -0.417314 -1.53256e-10 -8.05326e-11 -1.33948e-10 -2.90554 0.965183 -0.102902 -1.53266e-10 -8.05348e-11 -1.33947e-10 -10.2786 0.731801 -0.0259123 -1.53252e-10 -8.0532e-11 -1.33955e-10 -2.22167 -0.733487 0.20892 -2.03217e-16 0.0 -3.88251e-19 1.05333 2.07205 -3.81611 -0.393072 40.6386 0.537999 -1.21565 14.3254 4.55336 2.03217e-16 0.0 3.88251e-19 -3.38176 -23.7559 1.09598 0.0790577 17.7293 0.270285 0.402036 2.37507 -8.7501
65.3977 84.1207 -110.39 0.6369 -3.0037 1.4325 -2.54331 12.7823 7.71517 -1.76153 -3.49136 1.93816 -15.1257 -2.35801 -8.7501 19.5786 4.02827 -13.1825 -0.0 0.0 0.0 -0.0 0.0 0.0 6.80291e-15 -2.89239e-14 -3.3048e-15 88.2199 21.2913 2.04431 -14.6735 -7.29201 27.1838 -0.0817278 7.90856 1.11906 -4.1098e-10 2.90788e-10 1.15977e-10 -7.104e-10 5.01957e-10 2.04051e-10 -4.10977e-10 2.90789e-10 1.15963e-10 7.73091 5.47488 0.417314 -4.10974e-10 2.90786e-10 1.15974e-10 2.90554 0.965183 0.102902 -4.10975e-10 2.90786e-10 1.15974e-10 10.2786 0.731801 0.0259123 -4.10982e-10 2.90786e-10 1.15982e-10 2.22167 -0.733487 -0.20892 6.73353e-15 -2.89228e-14 -3.55017e-15 -86.5469 18.9914 7.95183 13.9055 -6.68589 -25.5877 0.0673446 7.1694 -1.01327 -2.3245e-11 -3.35159e-11 -9.90003e-11 -4.02983e-11 -5.75498e-11 -1.71309e-10 -2.32423e-11 -3.35138e-11 -9.89812e-11 -7.73091 5.47488 -0.417314 -2.32389e-11 -3.35114e-11 -9.89964e-11 -2.90554 0.965183 -0.102902 -2.32472e-11 -3.35126e-11 -9.89968e-11 -10.2786 0.731801 -0.0259123 -2.32363e-11 -3.35101e-11 -9.90029e-11 -2.22167 -0.733487 0.20892 -2.03217e-16 0.0 -3.88251e-19 0.298722 0.545092 -4.18717 -0.44813 43.0262 0.590177 -1.38811 16.5043 4.73985 2.03217e-16 0.0 3.88251e-19 -3.84007 -22.7849 1.10678 0.0800244 17.2137 0.30168 0.398028 2.18156 -8.9145
